# File exported by Houdini 19.0.383 (www.sidefx.com)
# 76 points
# 384 vertices
# 128 primitives
# Bounds: [-357.899994, -357.899994, -16.3999996] to [341.5, 341.5, 369]
g 
v -341.5 341.5 0
v -341.5 341.5 369
v -357.5 341.5 369
v -357.5 341.5 0
v -341.5 -341.5 368.999969
v -357.5 -357.5 368.999969
v 341.5 -341.5 368.999969
v 341.5 -357.5 368.999969
v 341.5 -341.5 0
v 341.5 -357.5 0
v -341.5 -341.5 0
v -357.5 -357.5 0
v -341.5 -212.78212 264.417664
v -341.5 -212.78212 0
v -341.5 212.78212 0
v -341.5 212.78212 264.417664
v 53.4156075 -341.5 105.11322
v -184.078186 -341.5 105.11322
v -184.078186 -341.5 217.489838
v 53.4156075 -341.5 217.489838
v -357.5 212.78212 0
v -357.5 -212.78212 0
v -357.5 -212.78212 264.417664
v -357.5 212.78212 264.417664
v -184.078186 -357.5 105.11322
v 53.4156075 -357.5 105.11322
v 53.4156075 -357.5 217.489838
v -184.078186 -357.5 217.489838
v -357.899994 -357.899994 -16.3999996
v -357.899994 341.5 -16.3999996
v 341.5 -357.899994 -16.3999996
v 341.5 341.5 -16.3999996
v -357.899994 341.5 -0.399999321
v 341.5 341.5 -0.399999321
v 341.5 -357.899994 -0.399999321
v -357.899994 -357.899994 -0.399999321
v -33.1895218 -128.061508 0
v -33.1895218 -192.89711 0
v -33.1895218 -128.061508 64.8356171
v -33.1895218 -192.89711 64.8356171
v -98.025116 -192.89711 0
v -98.025116 -128.061508 0
v -98.025116 -192.89711 64.8356171
v -98.025116 -128.061508 64.8356171
v 1.23406947 70.6999054 0
v 70.6999054 -1.23406947 0
v 1.23406947 70.6999054 5.95597076
v 70.6999054 -1.23406947 5.95597076
v -1.23406947 -70.6999054 0
v -70.6999054 1.23406947 0
v -1.23406947 -70.6999054 5.95597076
v -70.6999054 1.23406947 5.95597076
v 15.3541451 -241.404388 0
v 15.3541451 -341.404388 0
v 15.3541451 -241.404388 105.163284
v 15.3541451 -341.404388 105.163284
v -224.105927 -341.404388 0
v -224.105927 -241.404388 0
v -224.105927 -341.404388 105.163284
v -224.105927 -241.404388 105.163284
v 113.183281 153.913589 0
v 72.2690506 62.6665344 0
v 113.183281 153.913589 5.95597076
v 72.2690506 62.6665344 5.95597076
v -18.9780025 103.580765 0
v 21.9362259 194.82782 0
v -18.9780025 103.580765 5.95597076
v 21.9362259 194.82782 5.95597076
v -283.753693 -283.794128 0
v -283.753693 -341.407288 0
v -283.753693 -283.794128 57.6131744
v -283.753693 -341.407288 57.6131744
v -341.366852 -341.407288 0
v -341.366852 -283.794128 0
v -341.366852 -341.407288 57.6131744
v -341.366852 -283.794128 57.6131744
vt 0.472408473 0.726703227 0
vt 0.479521573 0.890749514 0
vt 0.472408473 0.890749514 0
vt 0.641107917 0.633994758 0
vt 0.330353618 0.641107857 0
vt 0.337466747 0.633994758 0
vt 0.330353618 0.330353588 0
vt 0.337466747 0.330353588 0
vt 0.132991314 0.927509248 0
vt 0.1258782 0.763462961 0
vt 0.132991314 0.763462961 0
vt 0.667820334 0.310754299 0
vt 0.660707235 0 0
vt 0.667820334 0.00711312098 0
vt 0.71775347 0.330353618 0
vt 0.660529375 0.494399875 0
vt 0.660529375 0.330353618 0
vt 0.964170635 0.677867591 0
vt 0.894185603 0.560551524 0
vt 0.964170635 0.513821363 0
vt 0.310754299 0.330353618 0
vt 0.24641709 0.447905719 0
vt 0.24641709 0.330353618 0
vt 0 0.513821363 0
vt 0.182680681 0.560551524 0
vt 0.0770981014 0.560551524 0
vt 0.254671454 0.867066979 0
vt 0.19744736 0.859953761 0
vt 0.254671454 0.859953761 0
vt 0.725044429 0.00711312098 0
vt 0.725044429 0 0
vt 0.792711318 0.292577118 0
vt 0.799824417 0.186994553 0
vt 0.799824417 0.292577118 0
vt 0.826358974 0.186994553 0
vt 0.819245875 0.292577118 0
vt 0.819245875 0.186994553 0
vt 0 0.856742918 0
vt 0.00711312098 0.906702161 0
vt 0 0.906702161 0
vt 0.806691468 0.69728905 0
vt 0.813804567 0.747248292 0
vt 0.806691468 0.747248292 0
vt 0.744465947 0.160459951 0
vt 0.933658957 0.167573079 0
vt 0.744465947 0.167573079 0
vt 0.795399487 0.779572666 0
vt 0.788286269 0.897124767 0
vt 0.788286269 0.779572666 0
vt 0.498943061 0.726703227 0
vt 0.50605619 0.844255388 0
vt 0.498943061 0.844255388 0
vt 0.31093213 0 0
vt 0 0.31093213 0
vt 0 0 0
vt 0.641285717 0.31093213 0
vt 0.330353618 0 0
vt 0.641285717 0 0
vt 0.31093213 0.973465323 0
vt 0 0.980578423 0
vt 0 0.973465323 0
vt 0.641285717 0.973465323 0
vt 0.330353618 0.980578423 0
vt 0.330353618 0.973465323 0
vt 0.641285717 0.946930707 0
vt 0.330353618 0.954043806 0
vt 0.330353618 0.946930707 0
vt 0.31093213 0.946930707 0
vt 0 0.954043806 0
vt 0 0.946930707 0
vt 0.773289859 0.186994553 0
vt 0.744465947 0.215818524 0
vt 0.744465947 0.186994553 0
vt 0.181236774 0.81170845 0
vt 0.152412802 0.840532362 0
vt 0.152412802 0.81170845 0
vt 0 0.792286873 0
vt 0.0288239494 0.763462961 0
vt 0.0288239494 0.792286873 0
vt 0.843644857 0.827818036 0
vt 0.814820886 0.856641948 0
vt 0.814820886 0.827818036 0
vt 0.843644857 0.779572666 0
vt 0.814820886 0.808396578 0
vt 0.814820886 0.779572666 0
vt 0.181236744 0.763462961 0
vt 0.152412802 0.792286873 0
vt 0.152412802 0.763462961 0
vt 0.488211483 0.660529375 0
vt 0.456231833 0.663177192 0
vt 0.456231833 0.660529375 0
vt 0.0585142672 0.856742918 0
vt 0.0265345965 0.859390736 0
vt 0.0265345965 0.856742918 0
vt 0.724407852 0.72926873 0
vt 0.78726995 0.728171468 0
vt 0.756387532 0.760151148 0
vt 0.776445568 0 0
vt 0.775348365 0.0628620908 0
vt 0.744465947 0.0308824144 0
vt 0.22942701 0.886488438 0
vt 0.19744736 0.889136255 0
vt 0.19744736 0.886488438 0
vt 0.858729124 0 0
vt 0.826749444 0.00264784484 0
vt 0.826749444 0 0
vt 0.76886481 0.779572666 0
vt 0.724407852 0.826325059 0
vt 0.724407852 0.779572666 0
vt 0.170335189 0.69728905 0
vt 0.1258782 0.744041562 0
vt 0.1258782 0.69728905 0
vt 0.330353618 0.833160043 0
vt 0.374810606 0.726703227 0
vt 0.374810606 0.833160043 0
vt 0.704986334 0.697289109 0
vt 0.660529375 0.803745866 0
vt 0.660529375 0.697289109 0
vt 0.436810315 0.660529375 0
vt 0.330353618 0.707281768 0
vt 0.330353618 0.660529375 0
vt 0.106456727 0.69728905 0
vt 0 0.744041562 0
vt 0 0.69728905 0
vt 0.584543288 0.863676906 0
vt 0.543977559 0.866324663 0
vt 0.543977559 0.863676906 0
vt 0.931380749 0.186994553 0
vt 0.890815079 0.1896424 0
vt 0.890815079 0.186994553 0
vt 0.412421286 0.785458207 0
vt 0.434797734 0.726703346 0
vt 0.452986985 0.767269015 0
vt 0.803220809 0.1004728 0
vt 0.744465828 0.122849256 0
vt 0.76265502 0.0822835714 0
vt 0.903631985 0.872852623 0
vt 0.863066375 0.875500441 0
vt 0.863066375 0.872852623 0
vt 0.434797734 0.804879606 0
vt 0.394232035 0.807527423 0
vt 0.394232035 0.804879606 0
vt 0.871393561 0.186994553 0
vt 0.845780551 0.212607637 0
vt 0.845780551 0.186994553 0
vt 0.888679385 0.827818096 0
vt 0.863066375 0.853431165 0
vt 0.863066375 0.827818096 0
vt 0.152412802 0.88556689 0
vt 0.178025872 0.85995388 0
vt 0.178025872 0.88556689 0
vt 0.0256130807 0.81170845 0
vt 0 0.837321401 0
vt 0 0.81170845 0
vt 0.551090717 0.726703227 0
vt 0.525477648 0.752316356 0
vt 0.525477648 0.726703227 0
vt 0.52455616 0.863676906 0
vt 0.498943061 0.889289975 0
vt 0.498943061 0.863676906 0
vt 0.52455616 0.889289975 0
vt 0.551090717 0.752316356 0
vt 0.0256130807 0.837321401 0
vt 0.152412802 0.85995388 0
vt 0.888679385 0.853431165 0
vt 0.871393561 0.212607637 0
vt 0.434797734 0.807527423 0
vt 0.903631985 0.875500441 0
vt 0.785031617 0.141038492 0
vt 0.394232035 0.744892538 0
vt 0.931380749 0.1896424 0
vt 0.584543288 0.866324663 0
vt 0.106456727 0.744041562 0
vt 0.436810315 0.707281768 0
vt 0.704986334 0.803745866 0
vt 0.330353618 0.726703227 0
vt 0.170335189 0.744041562 0
vt 0.76886481 0.826325059 0
vt 0.858729124 0.00264784484 0
vt 0.22942701 0.889136255 0
vt 0.807327986 0.0319796726 0
vt 0.75529027 0.69728905 0
vt 0.0585142672 0.859390736 0
vt 0.488211483 0.663177192 0
vt 0.181236744 0.792286873 0
vt 0.843644857 0.808396578 0
vt 0.843644857 0.856641948 0
vt 0 0.763462961 0
vt 0.181236774 0.840532362 0
vt 0.773289859 0.215818524 0
vt 0.31093213 0.954043806 0
vt 0.641285717 0.954043806 0
vt 0.641285717 0.980578423 0
vt 0.31093213 0.980578423 0
vt 0.330353618 0.31093213 0
vt 0.31093213 0.31093213 0
vt 0.50605619 0.726703227 0
vt 0.795399487 0.897124767 0
vt 0.933658957 0.160459951 0
vt 0.813804567 0.69728905 0
vt 0.00711312098 0.856742918 0
vt 0.826358974 0.292577118 0
vt 0.792711318 0.186994553 0
vt 0.19744736 0.867066979 0
vt 0.0770981014 0.610510767 0
vt 0 0.677867591 0
vt 0.310754299 0.677867591 0
vt 0.182680681 0.610510767 0
vt 0.310754299 0.513821363 0
vt 0.05722408 0.330353618 0
vt 0.05722408 0.447905719 0
vt 0 0.494399875 0
vt 0 0.330353618 0
vt 0.310754299 0.494399875 0
vt 0.788603008 0.560551524 0
vt 0.788603008 0.610510767 0
vt 0.660529375 0.677867591 0
vt 0.894185603 0.610510767 0
vt 0.660529375 0.513821363 0
vt 0.71775347 0.447905719 0
vt 0.90694648 0.447905719 0
vt 0.964170635 0.494399875 0
vt 0.964170635 0.330353618 0
vt 0.90694648 0.330353618 0
vt 0.660707235 0.310754299 0
vt 0.1258782 0.927509248 0
vt 0.641107917 0.641107857 0
vt 0.479521573 0.726703227 0
vn 0 1 -0
vn 0 1 0
vn 0 1 -0
vn -0 -3.49075506e-08 1
vn 1.7054262e-08 -1.7054262e-08 1
vn 1.74537753e-08 -1.74537753e-08 1
vn 1.74537753e-08 -1.74537753e-08 1
vn 0 0 1
vn -0 0 1
vn 1 0 0
vn 1 0 0
vn 1 0 0
vn 0 0 -1
vn 0 0 -1
vn 0 -0 -1
vn 1 0 0
vn 1 0 0
vn 1 0 0
vn 0 1 0
vn 0 1 0
vn 0 1 0
vn -1 0 -0
vn -1 0 0
vn -1 -0 0
vn -0 -1 0
vn 0 -1 0
vn 0 -1 0
vn 0 0 -1
vn 0 0 -1
vn 0 -0 -1
vn 0 0 -1
vn 0 0 -1
vn 0 -0 -1
vn 0 -0 -1
vn 0 -0 -1
vn 0 0 -1
vn -0 0 1
vn -0 0 1
vn 0 0 1
vn 1 0 0
vn 1 0 0
vn 1 0 0
vn -1 -0 0
vn -1 -0 0
vn -1 0 0
vn 0 0 -1
vn 0 0 -1
vn 0 -0 -1
vn 0 -1 0
vn 0 -1 0
vn -0 -1 0
vn 0 1 -0
vn 0 1 0
vn 0 1 -0
vn 0 -0 -1
vn 0 -0 -1
vn 0 0 -1
vn -0 0 1
vn 0 0 1
vn -0 0 1
vn 0 1 -0
vn 0 1 -0
vn 0 1 -0
vn 1 0 0
vn 1 0 0
vn 1 0 0
vn 0 -1 0
vn 0 -1 0
vn -0 -1 0
vn -1 0 -0
vn -1 0 0
vn -1 -0 0
vn 1 0 0
vn 1 0 0
vn 1 0 0
vn -1 0 0
vn -1 0 0
vn -1 0 0
vn 0 0 1
vn 0 0 1
vn 0 0 1
vn 0 0 -1
vn 0 0 -1
vn 0 0 -1
vn 0 1 0
vn 0 1 0
vn 0 1 0
vn 0 -1 0
vn 0 -1 0
vn 0 -1 0
vn 0.719339788 0.694658399 0
vn 0.719339788 0.694658399 0
vn 0.719339788 0.694658399 0
vn -0.719339788 -0.694658399 0
vn -0.719339788 -0.694658399 0
vn -0.719339788 -0.694658399 0
vn 0 0 1
vn 0 0 1
vn 0 0 1
vn 0 0 -1
vn 0 0 -1
vn 0 0 -1
vn -0.694658399 0.719339728 0
vn -0.694658399 0.719339728 0
vn -0.694658399 0.719339728 0
vn 0.694658399 -0.719339728 0
vn 0.694658399 -0.719339728 0
vn 0.694658399 -0.719339728 0
vn 1 0 0
vn 1 0 0
vn 1 0 0
vn -1 0 0
vn -1 0 0
vn -1 0 0
vn 0 0 1
vn 0 0 1
vn 0 0 1
vn 0 0 -1
vn 0 0 -1
vn 0 0 -1
vn 0 1 0
vn 0 1 0
vn 0 1 0
vn 0 -1 0
vn 0 -1 0
vn 0 -1 0
vn 0.912470579 -0.409142256 0
vn 0.912470579 -0.409142256 0
vn 0.912470579 -0.409142256 0
vn -0.912470579 0.409142256 0
vn -0.912470579 0.409142256 0
vn -0.912470579 0.409142256 0
vn 0 0 1
vn 0 0 1
vn 0 0 1
vn 0 0 -1
vn 0 0 -1
vn 0 0 -1
vn 0.409142345 0.912470579 0
vn 0.409142345 0.912470579 0
vn 0.409142345 0.912470579 0
vn -0.409142345 -0.912470579 0
vn -0.409142345 -0.912470579 0
vn -0.409142345 -0.912470579 0
vn 1 0 0
vn 1 0 0
vn 1 0 0
vn -1 0 0
vn -1 0 0
vn -1 0 0
vn 0 0 1
vn 0 0 1
vn 0 0 1
vn 0 0 -1
vn 0 0 -1
vn 0 0 -1
vn 0 1 0
vn 0 1 0
vn 0 1 0
vn 0 -1 0
vn 0 -1 0
vn 0 -1 0
vn 0 -1 0
vn 0 -1 0
vn 0 -1 0
vn 0 1 0
vn 0 1 0
vn 0 1 0
vn 0 0 -1
vn 0 0 -1
vn 0 0 -1
vn 0 0 1
vn 0 0 1
vn 0 0 1
vn -1 0 0
vn -1 0 0
vn -1 0 0
vn 1 0 0
vn 1 0 0
vn 1 0 0
vn -0.409142345 -0.912470579 0
vn -0.409142345 -0.912470579 0
vn -0.409142345 -0.912470579 0
vn 0.409142345 0.912470579 0
vn 0.409142345 0.912470579 0
vn 0.409142345 0.912470579 0
vn 0 0 -1
vn 0 0 -1
vn 0 0 -1
vn 0 0 1
vn 0 0 1
vn 0 0 1
vn -0.912470579 0.409142256 0
vn -0.912470579 0.409142256 0
vn -0.912470579 0.409142256 0
vn 0.912470579 -0.409142256 0
vn 0.912470579 -0.409142256 0
vn 0.912470579 -0.409142256 0
vn 0 -1 0
vn 0 -1 0
vn 0 -1 0
vn 0 1 0
vn 0 1 0
vn 0 1 0
vn 0 0 -1
vn 0 0 -1
vn 0 0 -1
vn 0 0 1
vn 0 0 1
vn 0 0 1
vn -1 0 0
vn -1 0 0
vn -1 0 0
vn 1 0 0
vn 1 0 0
vn 1 0 0
vn 0.694658399 -0.719339728 0
vn 0.694658399 -0.719339728 0
vn 0.694658399 -0.719339728 0
vn -0.694658399 0.719339728 0
vn -0.694658399 0.719339728 0
vn -0.694658399 0.719339728 0
vn 0 0 -1
vn 0 0 -1
vn 0 0 -1
vn 0 0 1
vn 0 0 1
vn 0 0 1
vn -0.719339788 -0.694658399 0
vn -0.719339788 -0.694658399 0
vn -0.719339788 -0.694658399 0
vn 0.719339788 0.694658399 0
vn 0.719339788 0.694658399 0
vn 0.719339788 0.694658399 0
vn 0 -1 0
vn 0 -1 0
vn 0 -1 0
vn 0 1 0
vn 0 1 0
vn 0 1 0
vn 0 0 -1
vn 0 0 -1
vn 0 0 -1
vn 0 0 1
vn 0 0 1
vn 0 0 1
vn -1 0 0
vn -1 0 0
vn -1 0 0
vn 1 0 0
vn 1 0 0
vn 1 0 0
vn -1 0 0
vn -1 0 -0
vn -1 -0 0
vn 0 -1 0
vn 0 -1 0
vn 0 -1 0
vn 1 0 0
vn 1 0 0
vn 1 0 0
vn 0 1 -0
vn 0 1 -0
vn 0 1 0
vn 0 0 1
vn -0 0 1
vn -0 0 1
vn 0 -0 -1
vn 0 -0 -1
vn 0 0 -1
vn 0 1 0
vn 0 1 -0
vn 0 1 -0
vn 0 -1 0
vn 0 -1 0
vn 0 -1 0
vn 0 0 -1
vn 0 0 -1
vn 0 -0 -1
vn -1 -0 0
vn -1 -0 0
vn -1 0 -0
vn 1 0 0
vn 1 0 0
vn 1 0 0
vn -0 0 1
vn -0 0 1
vn -0 0 1
vn 0 -0 -1
vn 0 -0 -1
vn 0 0 -1
vn 0 0 -1
vn 0 0 -1
vn 0 -0 -1
vn 0 0 -1
vn 0 0 -1
vn 0 -0 -1
vn 0 -1 0
vn 0 -1 0
vn 0 -1 0
vn 0 -1 0
vn 0 -1 0
vn 0 -1 0
vn 0 -1 0
vn 0 -1 0
vn 0 -1 0
vn 0 -1 0
vn 0 -1 0
vn 0 -1 0
vn 0 -1 0
vn 0 -1 0
vn -0 -1 0
vn 0 -1 0
vn 0 -1 0
vn 0 -1 0
vn 0 -1 0
vn 0 -1 0
vn -0 -1 0
vn -1 0 -0
vn -1 0 0
vn -1 0 0
vn -1 0 -0
vn -1 0 0
vn -1 -0 0
vn -1 0 0
vn -1 0 0
vn -1 0 0
vn -1 0 0
vn -1 0 0
vn -1 -0 0
vn -1 -0 0
vn -1 0 0
vn -1 0 -0
vn 0 1 0
vn 0 1 0
vn 0 1 -0
vn 0 1 -0
vn 0 1 0
vn 0 1 0
vn 0 1 0
vn 0 1 0
vn 0 1 0
vn 0 1 0
vn 0 1 0
vn 0 1 0
vn 0 1 0
vn 0 1 -0
vn 0 1 -0
vn 0 1 0
vn 0 1 -0
vn 0 1 0
vn 0 1 0
vn 0 1 -0
vn 0 1 0
vn 1 0 0
vn 1 0 0
vn 1 0 0
vn 1 0 0
vn 1 0 0
vn 1 0 0
vn 1 0 0
vn 1 0 0
vn 1 0 0
vn 1 0 0
vn 1 0 0
vn 1 0 0
vn 1 0 0
vn 1 0 0
vn 1 0 0
vn 0 0 -1
vn 0 0 -1
vn 0 -0 -1
vn 1 0 0
vn 1 0 0
vn 1 0 0
vn 0 0 1
vn 1.74537753e-08 -1.74537753e-08 1
vn 1.7054262e-08 -1.7054262e-08 1
vn 1.7054262e-08 -1.7054262e-08 1
vn -0 -3.49075506e-08 1
vn -0 -3.4108524e-08 1
vn 0 1 0
vn 0 1 -0
vn 0 1 -0
g 
f 1/1/1 3/2/2 2/3/3
f 2/4/4 6/5/5 5/6/6
f 5/6/7 8/7/8 7/8/9
f 7/9/10 10/10/11 9/11/12
f 9/12/13 12/13/14 11/14/15
f 14/15/16 5/16/17 11/17/18
f 5/18/19 18/19/20 11/20/21
f 12/21/22 23/22/23 22/23/24
f 12/24/25 26/25/26 25/26/27
f 1/27/28 21/28/29 4/29/30
f 14/30/31 12/13/32 22/31/33
f 27/32/34 19/33/35 20/34/36
f 17/35/37 25/36/38 26/37/39
f 25/38/40 19/39/41 28/40/42
f 17/41/43 27/42/44 20/43/45
f 23/44/46 16/45/47 13/46/48
f 15/47/49 24/48/50 21/49/51
f 14/50/52 23/51/53 13/52/54
f 30/53/55 31/54/56 29/55/57
f 33/56/58 35/57/59 34/58/60
f 30/59/61 34/60/62 32/61/63
f 32/62/64 35/63/65 31/64/66
f 31/65/67 36/66/68 29/67/69
f 29/68/70 33/69/71 30/70/72
f 37/71/73 40/72/74 38/73/75
f 41/74/76 44/75/77 42/76/78
f 43/77/79 39/78/80 44/79/81
f 42/80/82 38/81/83 41/82/84
f 42/83/85 39/84/86 37/85/87
f 38/86/88 43/87/89 41/88/90
f 45/89/91 48/90/92 46/91/93
f 49/92/94 52/93/95 50/94/96
f 51/95/97 47/96/98 52/97/99
f 50/98/100 46/99/101 49/100/102
f 50/101/103 47/102/104 45/103/105
f 46/104/106 51/105/107 49/106/108
f 53/107/109 56/108/110 54/109/111
f 57/110/112 60/111/113 58/112/114
f 59/113/115 55/114/116 60/115/117
f 58/116/118 54/117/119 57/118/120
f 58/119/121 55/120/122 53/121/123
f 54/122/124 59/123/125 57/124/126
f 61/125/127 64/126/128 62/127/129
f 65/128/130 68/129/131 66/130/132
f 67/131/133 63/132/134 68/133/135
f 66/134/136 62/135/137 65/136/138
f 66/137/139 63/138/140 61/139/141
f 62/140/142 67/141/143 65/142/144
f 69/143/145 72/144/146 70/145/147
f 73/146/148 76/147/149 74/148/150
f 75/149/151 71/150/152 76/151/153
f 74/152/154 70/153/155 73/154/156
f 74/155/157 71/156/158 69/157/159
f 70/158/160 75/159/161 73/160/162
f 75/159/163 70/158/164 72/161/165
f 71/156/166 74/155/167 76/162/168
f 70/153/169 74/152/170 69/163/171
f 71/150/172 75/149/173 72/164/174
f 76/147/175 73/146/176 75/165/177
f 72/144/178 69/143/179 71/166/180
f 67/141/181 62/140/182 64/167/183
f 63/138/184 66/137/185 68/168/186
f 62/135/187 66/134/188 61/169/189
f 63/132/190 67/131/191 64/170/192
f 68/129/193 65/128/194 67/171/195
f 64/126/196 61/125/197 63/172/198
f 59/123/199 54/122/200 56/173/201
f 55/120/202 58/119/203 60/174/204
f 54/117/205 58/116/206 53/175/207
f 55/114/208 59/113/209 56/176/210
f 60/111/211 57/110/212 59/177/213
f 56/108/214 53/107/215 55/178/216
f 51/105/217 46/104/218 48/179/219
f 47/102/220 50/101/221 52/180/222
f 46/99/223 50/98/224 45/181/225
f 47/96/226 51/95/227 48/182/228
f 52/93/229 49/92/230 51/183/231
f 48/90/232 45/89/233 47/184/234
f 43/87/235 38/86/236 40/185/237
f 39/84/238 42/83/239 44/186/240
f 38/81/241 42/80/242 37/187/243
f 39/78/244 43/77/245 40/188/246
f 44/75/247 41/74/248 43/189/249
f 40/72/250 37/71/251 39/190/252
f 33/69/253 29/68/254 36/191/255
f 36/66/256 31/65/257 35/192/258
f 35/63/259 32/62/260 34/193/261
f 34/60/262 30/59/263 33/194/264
f 35/57/265 33/56/266 36/195/267
f 31/54/268 30/53/269 32/196/270
f 23/51/271 14/50/272 22/197/273
f 24/48/274 15/47/275 16/198/276
f 16/45/277 23/44/278 24/199/279
f 27/42/280 17/41/281 26/200/282
f 19/39/283 25/38/284 18/201/285
f 25/36/286 17/35/287 18/202/288
f 19/33/289 27/32/290 28/203/291
f 12/13/292 14/30/293 11/14/294
f 21/28/295 1/27/296 15/204/297
f 25/26/298 28/205/299 6/206/300
f 6/206/301 28/205/302 8/207/303
f 8/207/304 28/205/305 27/208/306
f 8/207/307 27/208/308 26/25/309
f 25/26/310 6/206/311 12/24/312
f 8/207/313 26/25/314 10/209/315
f 10/209/316 26/25/317 12/24/318
f 21/210/319 24/211/320 3/212/321
f 21/210/322 3/212/323 4/213/324
f 3/212/325 24/211/326 23/22/327
f 3/212/328 23/22/329 6/214/330
f 6/214/331 23/22/332 12/21/333
f 17/215/334 20/216/335 7/217/336
f 7/217/337 20/216/338 5/18/339
f 5/18/340 20/216/341 19/218/342
f 5/18/343 19/218/344 18/19/345
f 17/215/346 7/217/347 9/219/348
f 17/215/349 9/219/350 18/19/351
f 18/19/352 9/219/353 11/20/354
f 13/220/355 16/221/356 2/222/357
f 2/222/358 16/221/359 1/223/360
f 1/223/361 16/221/362 15/224/363
f 13/220/364 2/222/365 5/16/366
f 13/220/367 5/16/368 14/15/369
f 12/13/370 9/12/371 10/225/372
f 10/10/373 7/9/374 8/226/375
f 8/7/376 5/6/377 6/5/378
f 6/5/379 2/4/380 3/227/381
f 3/2/382 1/1/383 4/228/384
